<?xml version="1.0" encoding="utf-8"?>
<!-- Generator: Adobe Illustrator 16.0.0, SVG Export Plug-In . SVG Version: 6.00 Build 0)  -->
<!DOCTYPE svg PUBLIC "-//W3C//DTD SVG 1.1//EN" "http://www.w3.org/Graphics/SVG/1.1/DTD/svg11.dtd">
<svg version="1.1" id="Layer_1" xmlns="http://www.w3.org/2000/svg" xmlns:xlink="http://www.w3.org/1999/xlink" x="0px" y="0px"
	 width="400px" height="200px" viewBox="0 0 400 200" enable-background="new 0 0 400 200" xml:space="preserve">
<g>
	<linearGradient id="SVGID_1_" gradientUnits="userSpaceOnUse" x1="56.4404" y1="192.4004" x2="64.5818" y2="15.7963">
		<stop  offset="0" style="stop-color:#FDC965"/>
		<stop  offset="0.5" style="stop-color:#624A1A"/>
		<stop  offset="1" style="stop-color:#FCC865"/>
	</linearGradient>
	<linearGradient id="SVGID_2_" gradientUnits="userSpaceOnUse" x1="1.001" y1="100" x2="118.6841" y2="100">
		<stop  offset="0" style="stop-color:#624A1A"/>
		<stop  offset="1" style="stop-color:#FDC965"/>
	</linearGradient>
	
		<path fill-rule="evenodd" clip-rule="evenodd" fill="url(#SVGID_1_)" stroke="url(#SVGID_2_)" stroke-width="0.5" stroke-miterlimit="10" d="
		M64.105,72.803l-0.386,0.166c0.12-2.397-1.055-4.36-1.854-5.406c-0.041-0.055-0.08-0.104-0.118-0.155
		c0.743-0.563,1.499-1.128,2.286-1.683l1.926-1.317c9.569-6.521,10.116-14.449,10.111-14.665l0.132-2.516
		c0.053-0.225,0.092-0.453,0.125-0.684c1.69,0.705,3.129,1.483,4.339,2.261c1.96,1.259,3.324,2.516,4.197,3.458
		c0.874,0.939,1.248,1.554,1.25,1.554l0.345-0.209c0,0,0-0.002-0.001-0.002l0,0c0-0.002-0.005-0.01-0.016-0.025
		c-2.429-4.065-6.112-6.575-10.027-8.109c0.001-0.033,0.002-0.065,0.002-0.097c0.003-0.796-0.124-1.609-0.395-2.408
		c0.921-0.158,1.813-0.447,2.664-0.842c1.708,0.486,3.212,1.053,4.497,1.619c1.708,0.753,3.024,1.505,3.915,2.069
		c0.891,0.563,1.343,0.933,1.346,0.933l0.26-0.307c-2.705-2.425-5.722-4-8.764-4.989c0.524-0.32,1.031-0.682,1.52-1.075
		c5.723-4.677,9.338-13.892,9.377-21.167c-0.001-2.087-0.307-4.028-1.027-5.688c-0.715-1.65-1.899-3.037-3.568-3.779
		c-1.223-0.549-2.484-0.794-3.722-0.792c-4.639,0.04-8.807,3.197-11.932,6.193c-2.554,2.476-4.387,4.921-4.98,5.743
		c-1.669-1.889-3.709-2.563-5.42-2.537c-0.207,0.003-0.408,0.011-0.604,0.025c-0.317,0.023-0.614,0.035-0.892,0.035
		c-1.28-0.006-2.211-0.229-3.367-0.765c-1.151-0.538-2.503-1.426-4.376-2.694c-0.735-0.501-1.591-0.704-2.421-0.701
		c-1.513,0.01-3.007,0.592-4.482,1.374c-1.381,0.746-2.755,1.699-3.992,2.656c0.407-1.663,0.782-3.804,0.785-6.002
		c-0.003-1.836-0.26-3.725-1.062-5.41c-0.794-1.684-2.21-3.146-4.282-3.88c-0.67-0.241-1.369-0.354-2.067-0.354
		c-2.048,0.01-4.064,0.91-5.993,2.276c-2.891,2.064-5.63,5.252-7.778,8.76c-2.14,3.514-3.691,7.331-4.048,10.759
		c-0.059,0.556-0.085,1.083-0.085,1.581c-0.014,1.646,0.315,3.003,0.863,4.073c-1.893,0.111-3.904,0.357-6.042,0.778
		c-1.391,0.25-2.185,0.483-2.19,0.484l0.104,0.39c0.736-0.179,1.458-0.338,2.167-0.479c0.098-0.018,0.198-0.034,0.301-0.052
		c1.475-0.25,3.549-0.498,6.009-0.524c0.381,0.577,0.833,1.053,1.336,1.421c1.482,1.097,3.148,1.291,4.294,1.295
		c0.177,0,0.342-0.006,0.495-0.013c-0.955,1.444-1.608,3.033-2.017,4.614C14.5,39.309,7.593,42.219,2.182,48.288
		c-0.58,0.618-0.853,0.996-0.856,1.003l0.318,0.246c0.271-0.329,0.544-0.648,0.821-0.961c0.23-0.247,0.513-0.534,0.851-0.854
		c2.481-2.353,7.884-6.415,17.258-8.512c-0.193,1.052-0.286,2.082-0.288,3.046c0.019,1.981,0.332,3.678,1.185,4.905
		c2.466,3.4,6.585,8.489,7.583,14.673c0.153,0.928,0.316,1.859,0.51,2.782c-0.745,0.41-1.605,1.096-2.451,1.978
		c-2.114,1.786-4.269,4.525-3.825,8.063c-0.018,0.804,0.091,1.604,0.356,2.385l-0.222,0.997c0,0.002-0.15,0.671-0.448,1.803
		c-0.886,3.384-3.15,10.83-6.381,15.403c-3.32,4.758-5.218,11.811-5.238,16.948c0.024,2.301,0.326,4.252,1.495,5.619l0.052,0.058
		l0.062,0.055c0.042,0.03,2.272,1.939,5.677,3.857c0.23,0.13,0.466,0.26,0.707,0.39c-1.042,2.177-6.316,13.625-6.338,24.542
		c0,1.679,0.127,3.343,0.419,4.967l-0.048,0.281c-0.196,0.025-0.715,0.103-1.315,0.355c-0.36,0.153-0.764,0.372-1.127,0.754
		c-0.364,0.375-0.663,0.979-0.653,1.637c-0.002,0.271,0.044,0.548,0.126,0.817c0.082,0.238,0.215,1.088,0.326,2.089
		c0.178,1.527,0.363,3.517,0.623,5.253c0.13,0.873,0.279,1.683,0.467,2.375c0.219,0.699,0.355,1.267,0.954,1.849l0.208,0.188
		l0.27,0.073c0.026,0.008,1.734,0.481,4.573,1.035l0.05,0.097c0.881,1.698,2.481,3.117,4.356,4.464
		c2.813,2.006,6.307,3.788,9.081,5.266c1.381,0.737,2.587,1.399,3.387,1.93c0.19,0.128,0.357,0.244,0.496,0.353
		c-0.236,0.087-0.561,0.133-0.915,0.133c-0.511,0-1.07-0.097-1.486-0.199c-0.208-0.05-0.379-0.101-0.496-0.136
		c-0.116-0.038-0.16-0.054-0.162-0.054l-0.146-0.057l-0.154-0.015c0,0,0,0-6.854-0.67c-1.433-0.144-2.582-0.209-3.552-0.211
		c-1.864-0.004-3.13,0.272-4.232,0.755c-1.1,0.478-1.969,1.045-3.444,1.707c-1.772,0.79-2.855,1.748-3.475,2.675
		c-0.622,0.93-0.749,1.791-0.746,2.271c0,0.126,0.007,0.227,0.016,0.301c-0.364,0.718-0.554,1.516-0.559,2.318
		c-0.017,1.229,0.536,2.629,1.861,3.336c0.631,0.326,1.285,0.438,2.032,0.534c0.74,0.083,1.553,0.112,2.365,0.112
		c2.31,0,4.61-0.236,4.632-0.238l1.85-0.189l-0.105-0.181c0.032,0,0.062,0,0.093,0c1.635-0.008,2.845-0.536,3.296-0.765
		c5.133-1.153,8.521-1.275,11.387-1.313c2.881-0.034,5.33,0.045,8.288-0.82c1.195-0.353,2.138-0.828,2.837-1.506
		c0.702-0.672,1.093-1.603,1.081-2.511c-0.019-1.435-0.76-2.692-1.789-3.908c-1.044-1.216-2.45-2.396-4.071-3.508
		c-1.118-0.765-2.042-1.525-2.802-2.243c4.657,1.858,9.512,2.213,12.762,2.223c1.967,0,3.354-0.14,3.764-0.187
		c1.115,1.367,2.558,2.58,4.177,3.581c1.494,0.916,2.689,1.675,3.609,2.267c-2.328,0.475-5.737,1.152-8.83,1.692
		c-2.254,0.389-3.954,1.542-5.036,2.938c-1.085,1.397-1.594,3.004-1.6,4.446c0.008,1.055,0.262,2.082,1.019,2.86
		c0.774,0.743,1.725,1.011,2.708,1.202c0.985,0.18,2.029,0.229,2.966,0.23c1.191,0,2.206-0.085,2.63-0.126
		c0.417,0.083,0.841,0.101,1.329,0.104c2.772-0.008,7.553-0.84,8.671-1.035c0.342,0.06,0.692,0.081,1.063,0.083
		c2.981-0.037,7.552-1.421,10.084-2.981c0.569-0.355,0.964-0.903,1.18-1.471c0.22-0.569,0.296-1.167,0.297-1.781
		c-0.011-1.806-0.648-3.859-1.493-5.82c-0.853-1.953-1.911-3.761-2.937-4.967c-0.836-0.985-0.984-1.685-0.99-2.186
		c0-0.366,0.095-0.652,0.187-0.848c0.035-0.071,0.067-0.128,0.094-0.17c0.08-0.064,0.157-0.13,0.236-0.194
		c1.792,3.802,4.889,6.104,8.416,7.345c4.005,1.424,8.592,1.648,12.987,1.652c2.451,0,4.842-0.073,7.023-0.073
		c1.79,0,3.44,0.052,4.846,0.225c1.332,0.16,2.212,0.387,2.63,0.577c-0.163,0.18-0.426,0.436-0.765,0.688
		c-0.901,0.709-2.267,1.547-3.562,2.426c-1.299,0.893-2.537,1.771-3.322,2.896c-0.4,0.589-0.66,1.21-0.662,1.882
		c-0.013,0.985,0.626,1.762,1.246,2.145c0.948,0.605,2.036,0.812,3.012,0.948c0.971,0.128,1.812,0.14,2.13,0.14
		c0.076,0,0.119,0,0.123,0l3.41-0.033l-2.668-2.123c-0.46-0.364-0.746-0.668-0.882-0.869c-0.072-0.099-0.102-0.169-0.116-0.205
		c-0.001-0.004-0.001-0.006-0.003-0.008c0.031-0.043,0.111-0.14,0.268-0.26c0.741-0.604,2.771-1.307,4.615-2.241
		c0.93-0.482,1.844-1.047,2.585-1.833c0.739-0.774,1.289-1.853,1.279-3.098c0-0.211-0.013-0.426-0.042-0.645
		c-0.162-1.248-0.759-2.332-1.628-3.095c-1.31-1.153-3.072-1.687-5.091-2.004c-2.024-0.308-4.344-0.371-6.823-0.371
		c-2.116,0-4.344,0.052-6.573,0.052c-1.257,0-2.513-0.02-3.749-0.065c-2.32-0.093-4.14-0.987-5.683-2.342
		c-2.307-2.033-3.873-5.167-4.807-7.804c-0.47-1.315-0.789-2.498-0.988-3.349c-0.076-0.317-0.132-0.59-0.175-0.803
		c0.942-2.891,1.198-5.617,1.194-7.708c0-0.767-0.033-1.454-0.08-2.036c0.558-0.386,1.115-0.778,1.672-1.192l0.444-0.331l0.04-0.554
		c0.001-0.023,0.044-0.601,0.044-1.559c-0.003-1.902-0.16-5.302-1.158-8.84c0.149-0.12,0.302-0.268,0.448-0.457
		c0.215-0.284,0.411-0.713,0.409-1.202c0-0.116-0.01-0.215-0.021-0.292l-0.002-0.012l-0.002-0.02
		c-0.057-0.288-0.118-0.389-0.184-0.546c-0.247-0.526-0.706-1.299-1.329-2.352c-1.852-3.104-5.059-8.411-6.199-11.681
		c-1.302-3.637-2.21-5.513-2.167-6.715c0.003-0.406,0.067-0.772,0.25-1.227c0.564-0.407,1.843-1.379,3.146-2.741
		c1.7-1.806,3.546-4.305,3.574-7.33c0-0.858-0.164-1.746-0.529-2.615c-1.278-3.047-3.589-6.696-5.95-10.293
		c-2.358-3.587-4.772-7.113-6.199-9.713c-1.45-2.633-2.884-5.734-3.95-8.166L64.105,72.803z M83.215,50.162
		c-1.59-1.313-3.827-2.79-6.839-4.032c0.009-0.077,0.016-0.154,0.021-0.23C78.861,46.881,81.224,48.251,83.215,50.162z
		 M84.649,43.982c-1.453-0.718-3.277-1.479-5.434-2.123c0.084-0.044,0.167-0.09,0.249-0.136
		C81.217,42.267,82.964,43.001,84.649,43.982z M8.228,43.556c4.01-2.688,8.372-4.251,12.506-5.128
		c-0.026,0.116-0.051,0.233-0.076,0.351C15.317,39.954,11.232,41.765,8.228,43.556z"/>
	<g>
		<linearGradient id="SVGID_3_" gradientUnits="userSpaceOnUse" x1="106.6187" y1="89.0806" x2="106.6187" y2="75.9038">
			<stop  offset="0" style="stop-color:#624A1A"/>
			<stop  offset="0.1235" style="stop-color:#6B521F"/>
			<stop  offset="0.3277" style="stop-color:#84662B"/>
			<stop  offset="0.5874" style="stop-color:#AD883F"/>
			<stop  offset="0.8895" style="stop-color:#E6B65A"/>
			<stop  offset="1" style="stop-color:#FCC865"/>
		</linearGradient>
		<linearGradient id="SVGID_4_" gradientUnits="userSpaceOnUse" x1="101.2749" y1="77.7285" x2="111.9624" y2="77.7285">
			<stop  offset="0" style="stop-color:#FDC965"/>
			<stop  offset="0.5" style="stop-color:#624A1A"/>
			<stop  offset="1" style="stop-color:#FCC865"/>
		</linearGradient>
		<path fill="url(#SVGID_3_)" stroke="url(#SVGID_4_)" stroke-width="0.25" stroke-miterlimit="10" d="M105.232,74H101.4v-2.261
			h10.438V74h-3.833v9.718h-2.772V74z"/>
		<linearGradient id="SVGID_5_" gradientUnits="userSpaceOnUse" x1="117.8433" y1="89.0806" x2="117.8433" y2="75.9043">
			<stop  offset="0" style="stop-color:#624A1A"/>
			<stop  offset="0.1235" style="stop-color:#6B521F"/>
			<stop  offset="0.3277" style="stop-color:#84662B"/>
			<stop  offset="0.5874" style="stop-color:#AD883F"/>
			<stop  offset="0.8895" style="stop-color:#E6B65A"/>
			<stop  offset="1" style="stop-color:#FCC865"/>
		</linearGradient>
		<linearGradient id="SVGID_6_" gradientUnits="userSpaceOnUse" x1="113.0132" y1="77.3701" x2="122.6733" y2="77.3701">
			<stop  offset="0" style="stop-color:#FDC965"/>
			<stop  offset="0.5" style="stop-color:#624A1A"/>
			<stop  offset="1" style="stop-color:#FCC865"/>
		</linearGradient>
		<path fill="url(#SVGID_5_)" stroke="url(#SVGID_6_)" stroke-width="0.25" stroke-miterlimit="10" d="M121.496,75.402
			c0.702,0.684,1.052,1.698,1.052,3.047v5.269h-2.668v-4.858c0-0.729-0.161-1.275-0.48-1.635s-0.78-0.539-1.386-0.539
			c-0.673,0-1.209,0.207-1.609,0.624c-0.398,0.417-0.599,1.036-0.599,1.856v4.552h-2.668V71.022h2.668v4.448
			c0.354-0.353,0.782-0.624,1.285-0.813c0.501-0.188,1.049-0.281,1.642-0.281C119.873,74.376,120.794,74.717,121.496,75.402z"/>
		<linearGradient id="SVGID_7_" gradientUnits="userSpaceOnUse" x1="129.231" y1="89.0811" x2="129.231" y2="75.9045">
			<stop  offset="0" style="stop-color:#624A1A"/>
			<stop  offset="0.1235" style="stop-color:#6B521F"/>
			<stop  offset="0.3277" style="stop-color:#84662B"/>
			<stop  offset="0.5874" style="stop-color:#AD883F"/>
			<stop  offset="0.8895" style="stop-color:#E6B65A"/>
			<stop  offset="1" style="stop-color:#FCC865"/>
		</linearGradient>
		<linearGradient id="SVGID_8_" gradientUnits="userSpaceOnUse" x1="124.2544" y1="79.1157" x2="134.207" y2="79.1157">
			<stop  offset="0" style="stop-color:#FDC965"/>
			<stop  offset="0.5" style="stop-color:#624A1A"/>
			<stop  offset="1" style="stop-color:#FCC865"/>
		</linearGradient>
		<path fill="url(#SVGID_7_)" stroke="url(#SVGID_8_)" stroke-width="0.25" stroke-miterlimit="10" d="M134.031,79.867h-6.964
			c0.125,0.571,0.423,1.021,0.89,1.354c0.467,0.329,1.048,0.495,1.745,0.495c0.478,0,0.905-0.07,1.275-0.213
			c0.371-0.143,0.716-0.369,1.035-0.677l1.42,1.54c-0.867,0.993-2.133,1.489-3.799,1.489c-1.038,0-1.957-0.203-2.754-0.608
			c-0.799-0.404-1.415-0.966-1.848-1.685c-0.435-0.719-0.651-1.534-0.651-2.446c0-0.902,0.215-1.715,0.642-2.439
			c0.428-0.724,1.016-1.289,1.764-1.693c0.746-0.406,1.583-0.607,2.507-0.607c0.901,0,1.717,0.193,2.446,0.581
			c0.73,0.388,1.303,0.944,1.719,1.67c0.417,0.724,0.625,1.563,0.625,2.523C134.082,79.185,134.065,79.424,134.031,79.867z
			 M127.785,76.908c-0.411,0.342-0.662,0.81-0.753,1.403h4.534c-0.091-0.583-0.341-1.047-0.751-1.395
			c-0.412-0.349-0.915-0.522-1.506-0.522C128.703,76.395,128.196,76.565,127.785,76.908z"/>
	</g>
	<g>
		<linearGradient id="SVGID_9_" gradientUnits="userSpaceOnUse" x1="354.3486" y1="129.4248" x2="354.3486" y2="120.5203">
			<stop  offset="0" style="stop-color:#FCC865"/>
			<stop  offset="0.4008" style="stop-color:#FAC664"/>
			<stop  offset="0.5508" style="stop-color:#F3C161"/>
			<stop  offset="0.6587" style="stop-color:#E7B75B"/>
			<stop  offset="0.7464" style="stop-color:#D6A953"/>
			<stop  offset="0.8219" style="stop-color:#C09748"/>
			<stop  offset="0.8888" style="stop-color:#A5803A"/>
			<stop  offset="0.9481" style="stop-color:#85662B"/>
			<stop  offset="1" style="stop-color:#624A1A"/>
		</linearGradient>
		<linearGradient id="SVGID_10_" gradientUnits="userSpaceOnUse" x1="349.3926" y1="123.3096" x2="359.3047" y2="123.3096">
			<stop  offset="0" style="stop-color:#FDC965"/>
			<stop  offset="0.5" style="stop-color:#624A1A"/>
			<stop  offset="1" style="stop-color:#FCC865"/>
		</linearGradient>
		<path fill="url(#SVGID_9_)" stroke="url(#SVGID_10_)" stroke-width="0.25" stroke-miterlimit="10" d="M353.066,119.858h-3.549
			v-2.091h9.662v2.091h-3.549v8.993h-2.564V119.858z"/>
		<linearGradient id="SVGID_11_" gradientUnits="userSpaceOnUse" x1="363.5576" y1="129.4268" x2="363.5576" y2="120.5223">
			<stop  offset="0" style="stop-color:#FCC865"/>
			<stop  offset="0.4008" style="stop-color:#FAC664"/>
			<stop  offset="0.5508" style="stop-color:#F3C161"/>
			<stop  offset="0.6587" style="stop-color:#E7B75B"/>
			<stop  offset="0.7464" style="stop-color:#D6A953"/>
			<stop  offset="0.8219" style="stop-color:#C09748"/>
			<stop  offset="0.8888" style="stop-color:#A5803A"/>
			<stop  offset="0.9481" style="stop-color:#85662B"/>
			<stop  offset="1" style="stop-color:#624A1A"/>
		</linearGradient>
		<linearGradient id="SVGID_12_" gradientUnits="userSpaceOnUse" x1="358.752" y1="124.5938" x2="368.3633" y2="124.5938">
			<stop  offset="0" style="stop-color:#FDC965"/>
			<stop  offset="0.5" style="stop-color:#624A1A"/>
			<stop  offset="1" style="stop-color:#FCC865"/>
		</linearGradient>
		<path fill="url(#SVGID_11_)" stroke="url(#SVGID_12_)" stroke-width="0.25" stroke-miterlimit="10" d="M361.15,128.418
			c-0.713-0.374-1.27-0.896-1.67-1.561c-0.402-0.666-0.604-1.421-0.604-2.265s0.201-1.599,0.604-2.265
			c0.4-0.666,0.957-1.185,1.67-1.561c0.711-0.373,1.516-0.561,2.414-0.561c0.896,0,1.701,0.188,2.406,0.561
			c0.709,0.376,1.262,0.895,1.664,1.561s0.604,1.421,0.604,2.265s-0.201,1.599-0.604,2.265c-0.402,0.664-0.955,1.187-1.664,1.561
			c-0.705,0.375-1.51,0.562-2.406,0.562C362.666,128.979,361.861,128.793,361.15,128.418z M365.125,126.312
			c0.406-0.428,0.609-1,0.609-1.719c0-0.718-0.203-1.291-0.609-1.717c-0.406-0.43-0.928-0.643-1.561-0.643s-1.156,0.213-1.568,0.643
			c-0.412,0.426-0.617,0.999-0.617,1.717c0,0.719,0.205,1.291,0.617,1.719s0.936,0.641,1.568,0.641S364.719,126.739,365.125,126.312
			z"/>
		<linearGradient id="SVGID_13_" gradientUnits="userSpaceOnUse" x1="374.5557" y1="129.4248" x2="374.5557" y2="120.5202">
			<stop  offset="0" style="stop-color:#FCC865"/>
			<stop  offset="0.4008" style="stop-color:#FAC664"/>
			<stop  offset="0.5508" style="stop-color:#F3C161"/>
			<stop  offset="0.6587" style="stop-color:#E7B75B"/>
			<stop  offset="0.7464" style="stop-color:#D6A953"/>
			<stop  offset="0.8219" style="stop-color:#C09748"/>
			<stop  offset="0.8888" style="stop-color:#A5803A"/>
			<stop  offset="0.9481" style="stop-color:#85662B"/>
			<stop  offset="1" style="stop-color:#624A1A"/>
		</linearGradient>
		<linearGradient id="SVGID_14_" gradientUnits="userSpaceOnUse" x1="369.7598" y1="122.9766" x2="379.4844" y2="122.9766">
			<stop  offset="0" style="stop-color:#FDC965"/>
			<stop  offset="0.5" style="stop-color:#624A1A"/>
			<stop  offset="1" style="stop-color:#FCC865"/>
		</linearGradient>
		<path fill="url(#SVGID_13_)" stroke="url(#SVGID_14_)" stroke-width="0.25" stroke-miterlimit="10" d="M373.541,125.513
			l-1.188,1.171v2.168h-2.469v-11.75h2.469v6.651l3.611-3.421h2.945l-3.547,3.612l3.863,4.907h-2.994L373.541,125.513z"/>
		<linearGradient id="SVGID_15_" gradientUnits="userSpaceOnUse" x1="383.8281" y1="129.4268" x2="383.8281" y2="120.5223">
			<stop  offset="0" style="stop-color:#FCC865"/>
			<stop  offset="0.4008" style="stop-color:#FAC664"/>
			<stop  offset="0.5508" style="stop-color:#F3C161"/>
			<stop  offset="0.6587" style="stop-color:#E7B75B"/>
			<stop  offset="0.7464" style="stop-color:#D6A953"/>
			<stop  offset="0.8219" style="stop-color:#C09748"/>
			<stop  offset="0.8888" style="stop-color:#A5803A"/>
			<stop  offset="0.9481" style="stop-color:#85662B"/>
			<stop  offset="1" style="stop-color:#624A1A"/>
		</linearGradient>
		<linearGradient id="SVGID_16_" gradientUnits="userSpaceOnUse" x1="379.2129" y1="124.5938" x2="388.4434" y2="124.5938">
			<stop  offset="0" style="stop-color:#FDC965"/>
			<stop  offset="0.5" style="stop-color:#624A1A"/>
			<stop  offset="1" style="stop-color:#FCC865"/>
		</linearGradient>
		<path fill="url(#SVGID_15_)" stroke="url(#SVGID_16_)" stroke-width="0.25" stroke-miterlimit="10" d="M388.27,125.29h-6.445
			c0.117,0.526,0.391,0.944,0.822,1.252c0.434,0.304,0.973,0.457,1.617,0.457c0.441,0,0.838-0.065,1.18-0.195
			c0.342-0.134,0.66-0.341,0.957-0.627l1.314,1.424c-0.801,0.92-1.973,1.379-3.516,1.379c-0.959,0-1.811-0.187-2.549-0.562
			c-0.74-0.374-1.311-0.896-1.711-1.561c-0.4-0.666-0.602-1.421-0.602-2.265c0-0.834,0.197-1.585,0.594-2.257
			c0.396-0.67,0.939-1.192,1.631-1.568c0.691-0.373,1.465-0.561,2.32-0.561c0.834,0,1.59,0.18,2.264,0.538
			c0.678,0.359,1.207,0.873,1.592,1.544c0.387,0.67,0.58,1.448,0.58,2.337C388.318,124.657,388.303,124.878,388.27,125.29z
			 M382.49,122.549c-0.381,0.319-0.613,0.751-0.697,1.299h4.195c-0.084-0.536-0.316-0.968-0.695-1.289
			c-0.381-0.323-0.846-0.484-1.395-0.484C383.338,122.074,382.869,122.233,382.49,122.549z"/>
		<linearGradient id="SVGID_17_" gradientUnits="userSpaceOnUse" x1="394.3193" y1="129.4248" x2="394.3193" y2="120.5218">
			<stop  offset="0" style="stop-color:#FCC865"/>
			<stop  offset="0.4008" style="stop-color:#FAC664"/>
			<stop  offset="0.5508" style="stop-color:#F3C161"/>
			<stop  offset="0.6587" style="stop-color:#E7B75B"/>
			<stop  offset="0.7464" style="stop-color:#D6A953"/>
			<stop  offset="0.8219" style="stop-color:#C09748"/>
			<stop  offset="0.8888" style="stop-color:#A5803A"/>
			<stop  offset="0.9481" style="stop-color:#85662B"/>
			<stop  offset="1" style="stop-color:#624A1A"/>
		</linearGradient>
		<linearGradient id="SVGID_18_" gradientUnits="userSpaceOnUse" x1="389.8398" y1="124.5293" x2="398.7988" y2="124.5293">
			<stop  offset="0" style="stop-color:#FDC965"/>
			<stop  offset="0.5" style="stop-color:#624A1A"/>
			<stop  offset="1" style="stop-color:#FCC865"/>
		</linearGradient>
		<path fill="url(#SVGID_17_)" stroke="url(#SVGID_18_)" stroke-width="0.25" stroke-miterlimit="10" d="M397.699,121.157
			c0.65,0.633,0.975,1.573,0.975,2.818v4.876h-2.471v-4.497c0-0.675-0.146-1.179-0.443-1.512c-0.295-0.333-0.723-0.499-1.283-0.499
			c-0.621,0-1.119,0.191-1.488,0.579c-0.369,0.385-0.553,0.958-0.553,1.719v4.21h-2.471v-8.52h2.359v0.999
			c0.326-0.359,0.732-0.637,1.221-0.832c0.484-0.195,1.016-0.292,1.598-0.292C396.197,120.207,397.051,120.522,397.699,121.157z"/>
	</g>
	<g>
		<linearGradient id="SVGID_19_" gradientUnits="userSpaceOnUse" x1="115.1738" y1="117.4365" x2="115.1738" y2="96.7138">
			<stop  offset="0.328" style="stop-color:#624A1A"/>
			<stop  offset="1" style="stop-color:#FCC865"/>
		</linearGradient>
		<linearGradient id="SVGID_20_" gradientUnits="userSpaceOnUse" x1="104.0029" y1="100.8896" x2="126.5742" y2="100.8896">
			<stop  offset="0" style="stop-color:#FDC965"/>
			<stop  offset="0.5" style="stop-color:#624A1A"/>
			<stop  offset="1" style="stop-color:#FCC865"/>
		</linearGradient>
		<path fill="url(#SVGID_19_)" stroke="url(#SVGID_20_)" stroke-width="0.5" stroke-miterlimit="10" d="M119.965,113.219
			l-4.756-6.868h-0.281h-4.967v6.868h-5.708V88.561h10.675c2.184,0,4.08,0.364,5.69,1.092c1.606,0.728,2.846,1.762,3.715,3.101
			c0.869,1.338,1.305,2.923,1.305,4.756c0,1.831-0.44,3.411-1.322,4.736c-0.88,1.328-2.13,2.345-3.751,3.047l5.53,7.927H119.965z
			 M118.52,94.32c-0.892-0.74-2.195-1.11-3.909-1.11h-4.65v8.594h4.65c1.714,0,3.017-0.373,3.909-1.125
			c0.894-0.751,1.339-1.81,1.339-3.17C119.859,96.123,119.414,95.061,118.52,94.32z"/>
		<linearGradient id="SVGID_21_" gradientUnits="userSpaceOnUse" x1="137.3506" y1="117.4365" x2="137.3506" y2="96.7138">
			<stop  offset="0.328" style="stop-color:#624A1A"/>
			<stop  offset="1" style="stop-color:#FCC865"/>
		</linearGradient>
		<linearGradient id="SVGID_22_" gradientUnits="userSpaceOnUse" x1="128.0996" y1="103.7432" x2="146.6016" y2="103.7432">
			<stop  offset="0" style="stop-color:#FDC965"/>
			<stop  offset="0.5" style="stop-color:#624A1A"/>
			<stop  offset="1" style="stop-color:#FCC865"/>
		</linearGradient>
		<path fill="url(#SVGID_21_)" stroke="url(#SVGID_22_)" stroke-width="0.5" stroke-miterlimit="10" d="M143.991,96.082
			c1.573,1.398,2.361,3.505,2.361,6.322v10.814h-5.145v-2.359c-1.034,1.762-2.959,2.642-5.776,2.642
			c-1.457,0-2.718-0.245-3.788-0.739c-1.067-0.493-1.884-1.175-2.447-2.044c-0.565-0.867-0.846-1.853-0.846-2.96
			c0-1.759,0.663-3.146,1.99-4.155c1.327-1.011,3.376-1.514,6.148-1.514h4.368c0-1.199-0.365-2.119-1.093-2.767
			c-0.728-0.646-1.819-0.97-3.275-0.97c-1.01,0-2.003,0.159-2.977,0.477c-0.975,0.317-1.803,0.746-2.483,1.285l-1.973-3.84
			c1.033-0.728,2.271-1.29,3.715-1.69c1.445-0.398,2.931-0.599,4.457-0.599C140.162,93.985,142.417,94.685,143.991,96.082z
			 M139.306,109.152c0.728-0.436,1.245-1.074,1.549-1.921v-1.939h-3.769c-2.255,0-3.383,0.741-3.383,2.221
			c0,0.706,0.276,1.264,0.828,1.674s1.311,0.616,2.272,0.616C137.743,109.803,138.578,109.586,139.306,109.152z"/>
		<linearGradient id="SVGID_23_" gradientUnits="userSpaceOnUse" x1="157.1997" y1="117.4365" x2="157.1997" y2="96.7139">
			<stop  offset="0.328" style="stop-color:#624A1A"/>
			<stop  offset="1" style="stop-color:#FCC865"/>
		</linearGradient>
		<linearGradient id="SVGID_24_" gradientUnits="userSpaceOnUse" x1="151.0674" y1="103.6016" x2="163.332" y2="103.6016">
			<stop  offset="0" style="stop-color:#FDC965"/>
			<stop  offset="0.5" style="stop-color:#624A1A"/>
			<stop  offset="1" style="stop-color:#FCC865"/>
		</linearGradient>
		<path fill="url(#SVGID_23_)" stroke="url(#SVGID_24_)" stroke-width="0.5" stroke-miterlimit="10" d="M159.225,94.689
			c1.115-0.47,2.402-0.704,3.857-0.704v5.072c-0.609-0.046-1.02-0.069-1.232-0.069c-1.574,0-2.806,0.441-3.699,1.32
			c-0.892,0.88-1.338,2.202-1.338,3.966v8.944h-5.495V94.268h5.248v2.501C157.222,95.853,158.11,95.16,159.225,94.689z"/>
		<linearGradient id="SVGID_25_" gradientUnits="userSpaceOnUse" x1="174.7607" y1="117.4365" x2="174.7607" y2="96.7138">
			<stop  offset="0.328" style="stop-color:#624A1A"/>
			<stop  offset="1" style="stop-color:#FCC865"/>
		</linearGradient>
		<linearGradient id="SVGID_26_" gradientUnits="userSpaceOnUse" x1="164.5234" y1="103.7432" x2="184.998" y2="103.7432">
			<stop  offset="0" style="stop-color:#FDC965"/>
			<stop  offset="0.5" style="stop-color:#624A1A"/>
			<stop  offset="1" style="stop-color:#FCC865"/>
		</linearGradient>
		<path fill="url(#SVGID_25_)" stroke="url(#SVGID_26_)" stroke-width="0.5" stroke-miterlimit="10" d="M184.643,105.292h-14.338
			c0.258,1.177,0.869,2.103,1.832,2.786c0.963,0.679,2.16,1.02,3.594,1.02c0.986,0,1.861-0.147,2.623-0.439
			c0.764-0.294,1.475-0.759,2.133-1.392l2.924,3.171c-1.787,2.042-4.395,3.063-7.822,3.063c-2.135,0-4.027-0.416-5.672-1.25
			c-1.643-0.834-2.91-1.99-3.803-3.471c-0.895-1.479-1.34-3.157-1.34-5.037c0-1.854,0.441-3.527,1.322-5.02
			c0.879-1.492,2.09-2.654,3.627-3.488c1.539-0.833,3.26-1.25,5.162-1.25c1.855,0,3.535,0.399,5.037,1.197
			c1.502,0.799,2.684,1.943,3.541,3.436c0.857,1.491,1.285,3.225,1.285,5.195C184.748,103.885,184.713,104.379,184.643,105.292z
			 M171.785,99.199c-0.846,0.705-1.363,1.667-1.551,2.89h9.334c-0.188-1.199-0.703-2.156-1.549-2.872
			c-0.846-0.717-1.879-1.075-3.1-1.075C173.674,98.142,172.629,98.495,171.785,99.199z"/>
		<linearGradient id="SVGID_27_" gradientUnits="userSpaceOnUse" x1="209.3545" y1="117.4365" x2="209.3545" y2="96.7138">
			<stop  offset="0.328" style="stop-color:#624A1A"/>
			<stop  offset="1" style="stop-color:#FCC865"/>
		</linearGradient>
		<linearGradient id="SVGID_28_" gradientUnits="userSpaceOnUse" x1="195.1416" y1="100.8896" x2="223.5674" y2="100.8896">
			<stop  offset="0" style="stop-color:#FDC965"/>
			<stop  offset="0.5" style="stop-color:#624A1A"/>
			<stop  offset="1" style="stop-color:#FCC865"/>
		</linearGradient>
		<path fill="url(#SVGID_27_)" stroke="url(#SVGID_28_)" stroke-width="0.5" stroke-miterlimit="10" d="M215.01,107.937h-11.451
			l-2.184,5.282h-5.848l10.992-24.658h5.637l11.025,24.658h-5.988L215.01,107.937z M213.213,103.603l-3.91-9.44l-3.912,9.44H213.213
			z"/>
		<linearGradient id="SVGID_29_" gradientUnits="userSpaceOnUse" x1="235.0527" y1="117.4365" x2="235.0527" y2="96.7139">
			<stop  offset="0.328" style="stop-color:#624A1A"/>
			<stop  offset="1" style="stop-color:#FCC865"/>
		</linearGradient>
		<linearGradient id="SVGID_30_" gradientUnits="userSpaceOnUse" x1="225.1152" y1="103.6016" x2="244.9902" y2="103.6016">
			<stop  offset="0" style="stop-color:#FDC965"/>
			<stop  offset="0.5" style="stop-color:#624A1A"/>
			<stop  offset="1" style="stop-color:#FCC865"/>
		</linearGradient>
		<path fill="url(#SVGID_29_)" stroke="url(#SVGID_30_)" stroke-width="0.5" stroke-miterlimit="10" d="M242.572,96.1
			c1.447,1.409,2.168,3.499,2.168,6.27v10.85h-5.494v-10.004c0-1.502-0.33-2.625-0.988-3.363c-0.656-0.741-1.607-1.111-2.854-1.111
			c-1.385,0-2.49,0.431-3.311,1.288c-0.824,0.856-1.232,2.13-1.232,3.82v9.37h-5.496V94.268h5.248v2.219
			c0.729-0.797,1.633-1.414,2.713-1.85c1.08-0.434,2.266-0.651,3.559-0.651C239.234,93.985,241.129,94.689,242.572,96.1z"/>
		<linearGradient id="SVGID_31_" gradientUnits="userSpaceOnUse" x1="254.6924" y1="117.4365" x2="254.6924" y2="96.7136">
			<stop  offset="0.328" style="stop-color:#624A1A"/>
			<stop  offset="1" style="stop-color:#FCC865"/>
		</linearGradient>
		<linearGradient id="SVGID_32_" gradientUnits="userSpaceOnUse" x1="247.2031" y1="101.7871" x2="262.2324" y2="101.7871">
			<stop  offset="0" style="stop-color:#FDC965"/>
			<stop  offset="0.5" style="stop-color:#624A1A"/>
			<stop  offset="1" style="stop-color:#FCC865"/>
		</linearGradient>
		<path fill="url(#SVGID_31_)" stroke="url(#SVGID_32_)" stroke-width="0.5" stroke-miterlimit="10" d="M261.932,112.304
			c-0.541,0.4-1.205,0.7-1.99,0.899c-0.787,0.199-1.617,0.298-2.484,0.298c-2.254,0-4-0.574-5.232-1.725
			c-1.234-1.151-1.85-2.841-1.85-5.073v-7.785h-2.922v-4.229h2.922v-4.615h5.496v4.615h4.721v4.229h-4.721v7.714
			c0,0.799,0.207,1.417,0.617,1.851s0.992,0.65,1.744,0.65c0.869,0,1.607-0.234,2.219-0.705L261.932,112.304z"/>
		<linearGradient id="SVGID_33_" gradientUnits="userSpaceOnUse" x1="267.7783" y1="117.4365" x2="267.7783" y2="96.7137">
			<stop  offset="0.328" style="stop-color:#624A1A"/>
			<stop  offset="1" style="stop-color:#FCC865"/>
		</linearGradient>
		<linearGradient id="SVGID_34_" gradientUnits="userSpaceOnUse" x1="264.1113" y1="99.3574" x2="271.4453" y2="99.3574">
			<stop  offset="0" style="stop-color:#FDC965"/>
			<stop  offset="0.5" style="stop-color:#624A1A"/>
			<stop  offset="1" style="stop-color:#FCC865"/>
		</linearGradient>
		<path fill="url(#SVGID_33_)" stroke="url(#SVGID_34_)" stroke-width="0.5" stroke-miterlimit="10" d="M265.313,90.744
			c-0.635-0.585-0.951-1.314-0.951-2.184c0-0.868,0.316-1.598,0.951-2.185c0.635-0.586,1.457-0.88,2.467-0.88
			s1.832,0.282,2.467,0.845c0.633,0.563,0.949,1.268,0.949,2.114c0,0.915-0.316,1.673-0.949,2.271
			c-0.635,0.6-1.457,0.898-2.467,0.898S265.947,91.332,265.313,90.744z M265.031,94.268h5.496v18.951h-5.496V94.268z"/>
		<linearGradient id="SVGID_35_" gradientUnits="userSpaceOnUse" x1="284.5479" y1="117.4375" x2="284.5479" y2="96.7143">
			<stop  offset="0.328" style="stop-color:#624A1A"/>
			<stop  offset="1" style="stop-color:#FCC865"/>
		</linearGradient>
		<linearGradient id="SVGID_36_" gradientUnits="userSpaceOnUse" x1="273.9766" y1="107.0195" x2="295.1191" y2="107.0195">
			<stop  offset="0" style="stop-color:#FDC965"/>
			<stop  offset="0.5" style="stop-color:#624A1A"/>
			<stop  offset="1" style="stop-color:#FCC865"/>
		</linearGradient>
		<path fill="url(#SVGID_35_)" stroke="url(#SVGID_36_)" stroke-width="0.5" stroke-miterlimit="10" d="M294.869,94.268v25.786
			h-5.496v-8.842c-1.361,1.527-3.254,2.289-5.672,2.289c-1.785,0-3.4-0.398-4.844-1.197c-1.445-0.798-2.576-1.937-3.398-3.417
			s-1.232-3.193-1.232-5.144c0-1.949,0.41-3.663,1.232-5.143s1.953-2.619,3.398-3.418c1.443-0.798,3.059-1.197,4.844-1.197
			c2.584,0,4.557,0.823,5.918,2.466v-2.184H294.869z M288.104,107.566c0.918-0.952,1.375-2.226,1.375-3.823
			c0-1.597-0.457-2.872-1.375-3.821c-0.914-0.952-2.066-1.427-3.451-1.427c-1.408,0-2.57,0.475-3.486,1.427
			c-0.916,0.949-1.373,2.225-1.373,3.821c0,1.598,0.457,2.871,1.373,3.823c0.916,0.95,2.078,1.425,3.486,1.425
			C286.037,108.991,287.189,108.517,288.104,107.566z"/>
		<linearGradient id="SVGID_37_" gradientUnits="userSpaceOnUse" x1="309.4346" y1="117.4365" x2="309.4346" y2="96.7139">
			<stop  offset="0.328" style="stop-color:#624A1A"/>
			<stop  offset="1" style="stop-color:#FCC865"/>
		</linearGradient>
		<linearGradient id="SVGID_38_" gradientUnits="userSpaceOnUse" x1="299.584" y1="103.8848" x2="319.2852" y2="103.8848">
			<stop  offset="0" style="stop-color:#FDC965"/>
			<stop  offset="0.5" style="stop-color:#624A1A"/>
			<stop  offset="1" style="stop-color:#FCC865"/>
		</linearGradient>
		<path fill="url(#SVGID_37_)" stroke="url(#SVGID_38_)" stroke-width="0.5" stroke-miterlimit="10" d="M319.035,94.268v18.951
			h-5.215v-2.253c-0.729,0.822-1.596,1.45-2.607,1.885c-1.01,0.434-2.102,0.65-3.275,0.65c-2.488,0-4.463-0.714-5.918-2.148
			c-1.457-1.432-2.186-3.558-2.186-6.376V94.268h5.496v9.898c0,3.054,1.279,4.579,3.842,4.579c1.314,0,2.371-0.426,3.17-1.285
			c0.797-0.857,1.197-2.131,1.197-3.821v-9.371H319.035z"/>
		<linearGradient id="SVGID_39_" gradientUnits="userSpaceOnUse" x1="326.8896" y1="117.4365" x2="326.8896" y2="96.7137">
			<stop  offset="0.328" style="stop-color:#624A1A"/>
			<stop  offset="1" style="stop-color:#FCC865"/>
		</linearGradient>
		<linearGradient id="SVGID_40_" gradientUnits="userSpaceOnUse" x1="323.2227" y1="99.3574" x2="330.5566" y2="99.3574">
			<stop  offset="0" style="stop-color:#FDC965"/>
			<stop  offset="0.5" style="stop-color:#624A1A"/>
			<stop  offset="1" style="stop-color:#FCC865"/>
		</linearGradient>
		<path fill="url(#SVGID_39_)" stroke="url(#SVGID_40_)" stroke-width="0.5" stroke-miterlimit="10" d="M324.424,90.744
			c-0.635-0.585-0.951-1.314-0.951-2.184c0-0.868,0.316-1.598,0.951-2.185c0.635-0.586,1.457-0.88,2.465-0.88
			c1.01,0,1.832,0.282,2.467,0.845c0.635,0.563,0.951,1.268,0.951,2.114c0,0.915-0.316,1.673-0.951,2.271
			c-0.635,0.6-1.457,0.898-2.467,0.898C325.881,91.625,325.059,91.332,324.424,90.744z M324.143,94.268h5.496v18.951h-5.496V94.268z
			"/>
		<linearGradient id="SVGID_41_" gradientUnits="userSpaceOnUse" x1="339.7305" y1="117.4365" x2="339.7305" y2="96.7136">
			<stop  offset="0.328" style="stop-color:#624A1A"/>
			<stop  offset="1" style="stop-color:#FCC865"/>
		</linearGradient>
		<linearGradient id="SVGID_42_" gradientUnits="userSpaceOnUse" x1="332.2422" y1="101.7871" x2="347.2695" y2="101.7871">
			<stop  offset="0" style="stop-color:#FDC965"/>
			<stop  offset="0.5" style="stop-color:#624A1A"/>
			<stop  offset="1" style="stop-color:#FCC865"/>
		</linearGradient>
		<path fill="url(#SVGID_41_)" stroke="url(#SVGID_42_)" stroke-width="0.5" stroke-miterlimit="10" d="M346.969,112.304
			c-0.541,0.4-1.203,0.7-1.988,0.899c-0.789,0.199-1.617,0.298-2.484,0.298c-2.254,0-4-0.574-5.232-1.725
			c-1.232-1.151-1.85-2.841-1.85-5.073v-7.785h-2.922v-4.229h2.922v-4.615h5.496v4.615h4.721v4.229h-4.721v7.714
			c0,0.799,0.205,1.417,0.615,1.851c0.412,0.434,0.992,0.65,1.744,0.65c0.869,0,1.609-0.234,2.221-0.705L346.969,112.304z"/>
		<linearGradient id="SVGID_43_" gradientUnits="userSpaceOnUse" x1="352.8154" y1="117.4365" x2="352.8154" y2="96.7137">
			<stop  offset="0.328" style="stop-color:#624A1A"/>
			<stop  offset="1" style="stop-color:#FCC865"/>
		</linearGradient>
		<linearGradient id="SVGID_44_" gradientUnits="userSpaceOnUse" x1="349.1484" y1="99.3574" x2="356.4824" y2="99.3574">
			<stop  offset="0" style="stop-color:#FDC965"/>
			<stop  offset="0.5" style="stop-color:#624A1A"/>
			<stop  offset="1" style="stop-color:#FCC865"/>
		</linearGradient>
		<path fill="url(#SVGID_43_)" stroke="url(#SVGID_44_)" stroke-width="0.5" stroke-miterlimit="10" d="M350.35,90.744
			c-0.633-0.585-0.951-1.314-0.951-2.184c0-0.868,0.318-1.598,0.951-2.185c0.635-0.586,1.457-0.88,2.467-0.88
			s1.832,0.282,2.467,0.845c0.635,0.563,0.949,1.268,0.949,2.114c0,0.915-0.314,1.673-0.949,2.271
			c-0.635,0.6-1.457,0.898-2.467,0.898S350.984,91.332,350.35,90.744z M350.068,94.268h5.496v18.951h-5.496V94.268z"/>
		<linearGradient id="SVGID_45_" gradientUnits="userSpaceOnUse" x1="369.251" y1="117.4365" x2="369.251" y2="96.7138">
			<stop  offset="0.328" style="stop-color:#624A1A"/>
			<stop  offset="1" style="stop-color:#FCC865"/>
		</linearGradient>
		<linearGradient id="SVGID_46_" gradientUnits="userSpaceOnUse" x1="359.0137" y1="103.7432" x2="379.4883" y2="103.7432">
			<stop  offset="0" style="stop-color:#FDC965"/>
			<stop  offset="0.5" style="stop-color:#624A1A"/>
			<stop  offset="1" style="stop-color:#FCC865"/>
		</linearGradient>
		<path fill="url(#SVGID_45_)" stroke="url(#SVGID_46_)" stroke-width="0.5" stroke-miterlimit="10" d="M379.133,105.292h-14.34
			c0.26,1.177,0.871,2.103,1.832,2.786c0.963,0.679,2.16,1.02,3.594,1.02c0.986,0,1.861-0.147,2.625-0.439
			c0.764-0.294,1.473-0.759,2.131-1.392l2.924,3.171c-1.785,2.042-4.393,3.063-7.82,3.063c-2.139,0-4.027-0.416-5.672-1.25
			s-2.912-1.99-3.805-3.471c-0.893-1.479-1.338-3.157-1.338-5.037c0-1.854,0.441-3.527,1.322-5.02
			c0.879-1.492,2.088-2.654,3.627-3.488c1.537-0.833,3.258-1.25,5.16-1.25c1.855,0,3.535,0.399,5.039,1.197
			c1.502,0.799,2.682,1.943,3.539,3.436c0.857,1.491,1.287,3.225,1.287,5.195C379.238,103.885,379.201,104.379,379.133,105.292z
			 M366.273,99.199c-0.846,0.705-1.361,1.667-1.549,2.89h9.334c-0.188-1.199-0.703-2.156-1.551-2.872
			c-0.844-0.717-1.879-1.075-3.098-1.075C368.162,98.142,367.117,98.495,366.273,99.199z"/>
		<linearGradient id="SVGID_47_" gradientUnits="userSpaceOnUse" x1="389.6465" y1="117.4365" x2="389.6465" y2="96.7138">
			<stop  offset="0.328" style="stop-color:#624A1A"/>
			<stop  offset="1" style="stop-color:#FCC865"/>
		</linearGradient>
		<linearGradient id="SVGID_48_" gradientUnits="userSpaceOnUse" x1="380.751" y1="103.7432" x2="398.4746" y2="103.7432">
			<stop  offset="0" style="stop-color:#FDC965"/>
			<stop  offset="0.5" style="stop-color:#624A1A"/>
			<stop  offset="1" style="stop-color:#FCC865"/>
		</linearGradient>
		<path fill="url(#SVGID_47_)" stroke="url(#SVGID_48_)" stroke-width="0.5" stroke-miterlimit="10" d="M384.662,112.921
			c-1.504-0.388-2.699-0.875-3.594-1.464l1.832-3.944c0.848,0.542,1.867,0.981,3.066,1.322c1.197,0.338,2.371,0.511,3.521,0.511
			c2.326,0,3.488-0.577,3.488-1.729c0-0.538-0.318-0.926-0.951-1.162c-0.633-0.233-1.609-0.434-2.924-0.598
			c-1.549-0.234-2.83-0.505-3.84-0.812c-1.012-0.304-1.885-0.846-2.625-1.62c-0.74-0.773-1.107-1.878-1.107-3.312
			c0-1.196,0.344-2.26,1.037-3.188c0.693-0.926,1.703-1.648,3.029-2.165s2.895-0.775,4.703-0.775c1.338,0,2.672,0.147,3.998,0.44
			c1.326,0.294,2.424,0.699,3.293,1.216l-1.832,3.91c-1.666-0.939-3.488-1.41-5.459-1.41c-1.174,0-2.055,0.165-2.643,0.493
			c-0.588,0.33-0.881,0.752-0.881,1.27c0,0.588,0.316,0.997,0.951,1.231c0.635,0.236,1.645,0.459,3.029,0.668
			c1.551,0.262,2.82,0.536,3.805,0.831c0.986,0.294,1.844,0.828,2.574,1.603c0.727,0.774,1.09,1.854,1.09,3.24
			c0,1.173-0.352,2.221-1.057,3.136c-0.705,0.916-1.732,1.626-3.082,2.131c-1.352,0.506-2.953,0.757-4.809,0.757
			C387.703,113.501,386.166,113.308,384.662,112.921z"/>
	</g>
</g>
</svg>
